<?xml version="1.0" encoding="utf-8"?>
<!-- Generator: Adobe Illustrator 25.4.1, SVG Export Plug-In . SVG Version: 6.00 Build 0)  -->
<svg version="1.1" id="Layer_1" xmlns="http://www.w3.org/2000/svg" xmlns:xlink="http://www.w3.org/1999/xlink" x="0px" y="0px"
	 viewBox="0 0 310 620" style="enable-background:new 0 0 310 620;" xml:space="preserve">
<g>
	<defs>
		<path id="SVGID_1_" d="M309.9,442.8c0-3.1,0-6.2,0-9.3c-2.9,0.7-5.4-1.2-8.1-1.2c0.5-4.4-2.2-6-5.8-6.8c-7.1-1.6-8.3-3.2-7.8-10.4
			c0.1-1.2,0.6-2.4,0.5-3.5c-1-5.9,4.1-6.4,7.1-6.5c3-0.1,4.9-1.1,6.9-2.6c0,0,0,0,0,0c0.7-1,1.4-2,2.1-3c1.7,0,3.4,0,5.1,0
			c0-1.7,0-3.4,0-5.2c0-0.7,0-1.4,0-2.1c0-2.1,0-4.1,0-6.2c0-1,0-2.1,0-3.1c-6.3,0.4-12.5,0-18.7-0.6c-0.4-1.1-0.6-2.8-1.3-3.2
			c-5.5-2.8-3.2-5.5-0.3-8.5c1.5-1.5,3.7-3.1,2.8-5.6c-1.5-4.2,0.4-7.6,2.2-11.1c0.9-1.9,1.8-3.8,1.7-5.9c-0.2-2.4-1.2-4.4-3.7-1.8
			c-2.1,2.2-2.6,1.7-4.1-0.7c-2.9-4.4-9.3-5.3-12.2-1.1c-2.3,3.5-4.8,3.7-8.1,4c-3.6,0.4-4.2,2.4-2.5,5.3c0.8,1.3,1.3,2.9,2.4,3.9
			c3.7,3.6,7.6,6.9,6,13c-0.3,1.3,1.3,3.1,1.9,4.6c0.7,1.8,1.3,3.7-1,4.9c-2.4,0-4.8,0.2-7.1,0.1c-5.9-0.2-14.9-2.6-16.4-2.1
			c-2.9-4.5-9.6-2.2-13.8-1.3c-4.5,1-7.7,1.3-13,3.3c-7.8,3-16.1,3.8-25,7.2c-5.7,2.2-12.6,2.3-19,3.1c-6.3,0.8-12.3,2.7-18.1,5.2
			c-1.2,0.5-3.2,1.1-4.5,2.2c-9.3,5.3-26.4,15.2-34.4,19.6c-13.5,3.8-6.8,7.9-9.2,7.8c-7.3-0.4-11.7-0.7-19-0.9
			c-22.5-0.4-45.1-0.7-67.6-1.1c-0.5,0-0.6,0.1-0.4,0.5L0,423.1l0.1,10.1h-4.8v187.6h46v-0.1c18.3,0,36.6,0,54.9,0
			c4.1,0,8.3,0,12.4,0c1.7,0,3.4,0,5.2,0c0.3,0,0.7,0,1,0c16.2,0,32.4,0,48.5,0c3.1,0,6.2,0,9.3,0c11,0,22,0,33,0
			c4.5,0,8.9,0,13.4,0c28.9,0,57.8-0.1,86.7,0.1c3.5,0,4.2-0.7,4.2-4.2C309.9,558.6,309.9,500.7,309.9,442.8z M276.8,425.1
			c-0.7,0-1.3,0.1-2,0.1c-0.5-0.3-0.9-0.2-1.2,0.4c-0.3,0.2-0.6,0.4-0.9,0.6c-0.7-0.1-1.1,0.2-1.2,0.9c0,0,0,0,0,0
			c-1.5,0.6-3,1.2-3,3.2c-1.6,0.8-3.4,0.3-5.1,0.3c-34.3-1.1-68.6-3.3-102.9-4c-4.7-0.1-9.4,0.1-14.1,0l-1.1,0
			c-3.8-0.1-7.7-0.4-11.5-1.3c7.8-6.1,29.6-17.1,37.7-23.7h0c1-0.3,2-0.4,3-0.2c1,0,2-0.1,3-0.1c1.4,0,2.8,0,4.2-0.1l0,0
			c0.3,0,0.6,0,1,0c0.7,0,1.4,0,2.1,0c0.3,0,0.7,0,1,0c25.5-0.7,51-1.3,76.5-2c0.7,0,1.3-0.1,2-0.1c1.4,0,2.8,0.1,4.2,0.1
			c0.4,2.2,0.7,4.4,1.1,6.6c0,0-0.2,0.1-0.2,0.1l0.1,0c1.6,2,3.6,2.9,6.1,1.8c3.4,2.7,4.1,6.8,5.6,10.5
			C281.8,421.6,279,423.2,276.8,425.1z"/>
	</defs>
	<clipPath id="SVGID_00000091734879300395079320000001444118852439905450_">
		<use xlink:href="#SVGID_1_"  style="overflow:visible;"/>
	</clipPath>
	
		<image style="overflow:visible;clip-path:url(#SVGID_00000091734879300395079320000001444118852439905450_);enable-background:new    ;" width="310" height="620" xlink:href="images/car-wrap.jpg" >
	</image>
</g>
</svg>
