<?xml version="1.0" encoding="utf-8"?>
<!-- Generator: Adobe Illustrator 25.4.1, SVG Export Plug-In . SVG Version: 6.00 Build 0)  -->
<svg version="1.1" id="Layer_1" xmlns="http://www.w3.org/2000/svg" xmlns:xlink="http://www.w3.org/1999/xlink" x="0px" y="0px"
	 viewBox="0 0 160 600" style="enable-background:new 0 0 160 600;" xml:space="preserve">
<style type="text/css">
	.st0{fill:#F26641;}
	.st1{fill:#97CB59;}
	.st2{fill:#FDB913;}
	.st3{fill:#00A5D1;}
	.st4{clip-path:url(#SVGID_00000108987296523767965350000006396277299546305956_);}
	.st5{fill:#FFFFFF;}
</style>
<polygon id="line-1" class="st0" points="-384.4,199.5 -48.9,823.1 680,430 331.8,-186.7 "/>
<polygon id="line-2" class="st1" points="-368.7,228.8 -71.4,778.6 649.1,385.3 348.2,-157.7 "/>
<polygon id="line-3" class="st2" points="-364.4,236.9 -62.6,798.2 663.9,406.4 352.7,-149.8 "/>
<polygon id="line-4" class="st3" points="-343.9,271.7 -30.1,859.1 701.9,464.4 372.4,-114.5 "/>
<g id="anim">
	<g>
		<defs>
			<polygon id="mask" points="-343.9,271.7 -30.1,859.1 701.9,464.4 372.4,-114.5 			"/>
		</defs>
		<clipPath id="mask_bg">
			<use xlink:href="#mask"  style="overflow:visible;"/>
		</clipPath>
		<g style="clip-path:url(#mask_bg);">
			<rect x="2.5" y="2.5" class="st3" width="155" height="595"/>
			<path class="st5" d="M155,5v590H5V5H155 M160,0H0v600h160V0L160,0z"/>
		</g>
	</g>
</g>
</svg>

