<?xml version="1.0" encoding="utf-8"?>
<!-- Generator: Adobe Illustrator 25.4.1, SVG Export Plug-In . SVG Version: 6.00 Build 0)  -->
<svg version="1.1" id="Layer_1" xmlns="http://www.w3.org/2000/svg" xmlns:xlink="http://www.w3.org/1999/xlink" x="0px" y="0px"
	 viewBox="0 0 556 474" style="enable-background:new 0 0 556 474;" xml:space="preserve">
<g>
	<defs>
		<path id="SVGID_1_" d="M299,402l39-16c0,0,8.8-3.9,16-9c8.7-4.6,1.3-8.1,1.3-8.1h7.7c0,0,13.3-4.1-3.1-6.6c-9.7-1.5-47.5,0-47.5,0
			l-7.1-14.8l-12.8-8.2c0,0-2.6-5.6-9.2-4.6c-0.5-3.6,0-7.1-7.7-9.7c0-8.2,2-5.1,0-11.7s0-26.6,0-26.6l-6.1-90.4l-111.3-34.7
			L0,145.8l-8.6-3.1c0,0-41.4,147.8-41.4,156.3c0,8.4-19.1,173.1-19.1,187.7S80,504,80,504L299,402z"/>
	</defs>
	<clipPath id="SVGID_00000006677098894103685070000002408163165749854874_">
		<use xlink:href="#SVGID_1_"  style="overflow:visible;"/>
	</clipPath>
	
		<image style="overflow:visible;clip-path:url(#SVGID_00000006677098894103685070000002408163165749854874_);enable-background:new    ;" width="556" height="474" xlink:href="images/road.jpg" >
	</image>
</g>
</svg>
