<?xml version="1.0" encoding="utf-8"?>
<!-- Generator: Adobe Illustrator 25.4.1, SVG Export Plug-In . SVG Version: 6.00 Build 0)  -->
<svg version="1.1" id="Layer_1" xmlns="http://www.w3.org/2000/svg" xmlns:xlink="http://www.w3.org/1999/xlink" x="0px" y="0px"
	 viewBox="0 0 310 620" style="enable-background:new 0 0 310 620;" xml:space="preserve">
<g>
	<defs>
		<path id="SVGID_1_" d="M309.2,85.7c-6.5,1.1-13.1,1.6-19.2,4.1C296.1,87.3,302.7,86.8,309.2,85.7c0.6-2.6,0-3.8-3-3.2
			C292,85.3,277.9,88,264,92c-2.6,0.2-2.9-1.5-3.1-3.5c-1.2-12.2-2.5-24.3-3.8-36.5c-0.3-1.9,0.6-3.4,2.5-3.6
			c16.5-2.7,35-6.4,51.1-10.5c0.7-0.4-0.4-1.2-0.3-1.9c1.6-8.2,2.1-15.6-0.3-23.5c2.1-4,0.5-8.4-0.2-12.5C208.6,0,106.9,0.1,5.6,0
			C1.7,0,0.4,0.4,0.5,4.9C0.8,39,0.6,73.2,0.6,107.4C70,88.7,140.2,72.7,210.7,58.8c6.5-1.3,13-1.9,19.3-4.1
			c3.2,0,10.4-4.2,11.2,0.6c1.3,13.8,5.9,27.1,7,40.9c2.5-1,5.1-1.8,7.8-2.5c-18.1,5.5-35.9,11.9-53.4,19c-6.2,2.5-9.2,6.9-8.9,13.5
			c0.4,10.1,0.8,20.2,1.6,30.3c0.4,5.9,4.8,9,10.7,8c33.4-4.5,66.5-10.3,99.3-18c2.8-0.6,5-1.3,3.9-4.9
			C309.1,122.9,309.2,104.3,309.2,85.7z M232.3,106.5l-0.1-0.1C232.2,106.4,232.3,106.5,232.3,106.5
			C232.3,106.5,232.3,106.5,232.3,106.5z M235.1,104.7c0-0.1,0.1-0.3,0.1-0.4h0C235.2,104.4,235.1,104.5,235.1,104.7z M241.3,103.1
			C241.3,103.1,241.3,103.1,241.3,103.1L241.3,103.1L241.3,103.1z M241.5,103.4C241.5,103.4,241.5,103.4,241.5,103.4l-0.2-0.2
			C241.4,103.3,241.5,103.4,241.5,103.4z M281.6,91.8c1.1,0,2.1,0,3-0.9c0,0,0,0,0,0C283.7,91.8,282.7,91.8,281.6,91.8z M288.5,90
			c-1.3,0-2.7-0.2-3.8,0.8c1.3-0.2,2.6,0.1,3.8-0.3c-1.2,0.4-2.6,0.1-3.8,0.3c0,0,0,0,0,0c0,0,0,0,0,0C285.8,89.8,287.2,90,288.5,90
			z"/>
	</defs>
	<clipPath id="SVGID_00000139269558156959343190000015180210544142091150_">
		<use xlink:href="#SVGID_1_"  style="overflow:visible;"/>
	</clipPath>
	
		<image style="overflow:visible;clip-path:url(#SVGID_00000139269558156959343190000015180210544142091150_);" width="310" height="620" xlink:href="images/car-wrap.jpg" >
	</image>
</g>
</svg>
