<?xml version="1.0" encoding="utf-8"?>
<!-- Generator: Adobe Illustrator 25.4.1, SVG Export Plug-In . SVG Version: 6.00 Build 0)  -->
<svg version="1.1" id="Layer_1" xmlns="http://www.w3.org/2000/svg" xmlns:xlink="http://www.w3.org/1999/xlink" x="0px" y="0px"
	 viewBox="0 0 300 600" style="enable-background:new 0 0 300 600;" xml:space="preserve">
<g>
	<defs>
		<path id="SVGID_1_" d="M299.9,371c0-1.3,0-2.7,0-4c0-25,0-50,0-75c-4.5-4-5.3-10.4-9.1-14.8c-3.7-4.4-5.1-10.8-11.2-13.1
			c-0.7-1.7-1.9-3-3.6-3.8c-5.5-5.3-11.2-10.3-15.5-16.9c-1-1.6-3.3-4.4-6.7-2.5c-1.3,0.7-2-0.7-2.7-1.6c-1.8-2.2-3.6-4.4-5.4-6.6
			c-2.8-1.5-5.8-0.8-8.8-0.5c-1.8,0.3-3.2-0.7-4.3-1.9c-2.3-2.3-5.1-3.2-8.2-3.5c-0.7-2.3,0.9-6.3-2.9-6.5
			c-4.8-0.2-10.2-3.7-14.3,1.9c-0.3,0.5-1.4,0.4-1.8,0.8c-2.4,2.4-6.2,1.7-8.5,3.6c-4.3,3.6-8.2,7.8-12.3,11.7v0
			c-0.3,0.2-0.6,0.4-0.9,0.5c-0.6,0-1.1,0.2-1.2,0.8c0,0,0,0,0,0c-3.3,4.8-7,9.2-12.2,12.1c-0.4,0.2-0.2,1.5-0.3,2.3
			c-0.2,0.2-0.2,0.4-0.1,0.6c-2.3,2-6.3,3.6-6.7,6c-1.6,8-6.7,13.5-11.5,19.4c-2.2,2.7-4.1,5.5-4.7,9.1c0,1.6-0.1,3.1-0.1,4.7
			c-2.7,1.4-3.3,4.3-4.9,6.6c-1.8,2.7-2.8,5.8-5,8.3c-9.4,10.8-18.3,21.9-25.3,34.5c-3.1,5.6-6.8,11-13.6,13.2
			c-1.5,0.5-2.9,1.6-3.6,3.3c-0.5,0.2-1,0.4-1.6,0.6c-0.8-0.1-1.6-0.2-2.1,0.7c-2.3-0.6-4.3,0.5-6.1,1.5
			c-7.5,4.3-14.9,8.8-22.4,13.3c0,0,0,0,0,0c0,0-0.2,0.1-0.2,0.1c-3.5,0.6-3.3,3.4-3.5,6c-0.7,0.7-1.2,1.5-2,2.1
			c-3.6,3-6.4,7.7-11.4,7.9c-3.8,0.2-7.2,0.9-9.9,3.2c-3.5,2.9-7.5,3.9-11.8,4.5c0.1,0.3,0.1,0.6,0.2,1c-0.1-0.3-0.2-0.7-0.2-1
			c-0.6-0.3-1.2-0.5-1.7-0.8c-6.8-4.2-14.5-4.3-22-4.9c0,3.7,0,7.3,0,11c0,29.7,0,59.3,0,89c0,2.3,0,4.7,0,7c0,1.3,0,2.7,0,4
			s0,2.7,0,4c0,29.3,0,58.6-0.1,88c0,2.5,0.6,3.1,3.1,3.1c11-0.2,22-0.1,33-0.1c3,0,6,0,9,0c27.3,0,54.6,0,81.9,0c5,0,10,0,15,0
			c51.2,0,102.5-0.1,153.7,0.1c3.7,0,4.3-0.9,4.3-4.4C299.9,520.7,299.9,445.8,299.9,371z"/>
	</defs>
	<clipPath id="SVGID_00000111174412162226916680000009176939018251107233_">
		<use xlink:href="#SVGID_1_"  style="overflow:visible;"/>
	</clipPath>
	
		<image style="overflow:visible;clip-path:url(#SVGID_00000111174412162226916680000009176939018251107233_);" width="300" height="600" xlink:href="images/mountain-fr2.png" >
	</image>
</g>
</svg>
