<?xml version="1.0" encoding="utf-8"?>
<!-- Generator: Adobe Illustrator 25.4.1, SVG Export Plug-In . SVG Version: 6.00 Build 0)  -->
<svg version="1.1" id="Layer_2_00000090286465152797508000000014228985916028271257_"
	 xmlns="http://www.w3.org/2000/svg" xmlns:xlink="http://www.w3.org/1999/xlink" x="0px" y="0px" viewBox="0 0 980 260"
	 style="enable-background:new 0 0 980 260;" xml:space="preserve">
<style type="text/css">
	.st0{clip-path:url(#SVGID_00000120527808931440364120000018275325305791840180_);enable-background:new    ;}
</style>
<g>
	<defs>
		<path id="SVGID_2-a_" d="M595.8,226.5l-156.3-23.1c-0.7-0.3-1.5-0.5-2.4-0.6c1-4.8-1.9-7-5.9-8.3c-7.8-2.6-9.1-4.4-7.9-12.4
			c0.3-1.3,1-2.6,0.9-3.9c-0.6-6.7,5.1-6.8,8.5-6.7c3.4,0.1,5.6-0.9,8-2.4c0.6-0.9,1.3-1.6,2.1-2.5l4-0.4c0,0,0,0,85.8,8.3
			c3,0.4,3.3-1.2,3.3-1.2s0,0,0.3-3.2c-0.2-3.8-1.8-3.2-1.8-3.2s-0.6,0-13-1.5c-15.8-8.6-40.3-10.3-43.9-10.4
			c0.7-3.2-11.3-3.8-11.3-3.8l-15.6-3.4c-7.2-0.2-14.1-1.2-21-2.6c-0.3-1.4-0.5-3.3-1.2-3.7c-5.9-3.7-3-6.5,0.4-9.6
			c1.8-1.6,4.4-3,3.7-5.9c-1.3-4.9,1.1-8.4,3.5-12.2c1.1-2,2.4-4.2,2.4-6.4c0-2.7-0.9-5-4-2.4c-2.7,2.2-3.2,1.6-4.5-1.1
			c-2.8-5.2-9.8-6.9-13.6-2.5c-3,3.7-5.8,3.7-9.4,3.7c-4,0-4.9,2.2-3.3,5.8c0.8,1.6,1.2,3.3,2.3,4.6c3.8,4.3,7.8,8.4,5.5,15.3
			c-0.5,1.5,1.2,3.5,1.6,5.3c0.6,2.1,1.2,4.3-1.6,5.4c-2.6-0.2-5.5-0.3-7.9-0.5c-6.6-0.8-16.5-4.4-18.3-4
			c-2.8-5.4-10.5-3.4-15.3-2.8c-5.2,0.7-8.8,0.8-15,2.5c-9.1,2.6-18.5,2.8-28.8,5.7c-6.6,1.9-14.4,1.4-21.6,1.6
			c-7.2,0.3-14,1.8-20.8,4.1c-1.4,0.5-3.7,1-5.3,2c-10.9,5.1-31.2,14.6-40.5,18.7c-15.6,3-8.5,8.2-11.1,8
			c-8.3-1.1-13.1-1.9-21.2-2.8c-25.2-2.5-50.6-5.1-75.8-7.8c-0.6,0-0.8,0.1-0.4,0.5l-44.6-4.2c-15.6-1-42.6,0.5-58.1,0.9
			c-26.3,11-45.2-8.9-45.2-8.9l-36.7,131.8l129.5,99.1l51.6,4.4l0-0.2c20.5,1.8,41.1,3.5,61.8,5.3c4.5,0.4,9.4,0.8,13.9,1.2
			c1.9,0.2,3.8,0.3,5.8,0.5c0.4,0,0.8,0.1,1.1,0.1c18.3,1.6,36.4,3.1,54.4,4.7c3.4,0.3,7,0.6,10.4,0.9c12.4,1.1,24.7,2.1,37.1,3.2
			c5.1,0.4,10,0.9,15.1,1.3c32.4,2.8,65,5.4,97.4,8.5c4,0.3,4.8-0.4,5.1-4.3c0.9-10.4,1.8-20.9,2.7-31.3c26,1,77.5,1.8,119.1,2.4
			c-3,24.8-4.7,42.8-3.7,43.9c3.6,3.6,318.1,2.6,329.4-5.1c11.2-7.7,94.5-147.1,94.5-147.1L595.8,226.5z M409.7,192.4
			c-0.8-0.1-1.5,0.1-2.3,0c-0.5-0.4-0.9-0.3-1.4,0.3c-0.4,0.2-0.8,0.3-1,0.7c-0.7-0.3-1.3,0.1-1.4,0.8c-1.8,0.6-3.5,1-3.7,3.3
			c-2,0.8-3.8,0.1-5.7-0.1c-38.7-4.6-77.1-10.4-115.5-14.4c-5.3-0.6-10.6-0.7-15.8-1.4l-1.3-0.1c-4.3-0.6-8.6-1.1-12.9-2.6
			c9.4-6,35-16.4,44.7-22.9c1.2-0.3,2.3-0.2,3.4,0.1c1.1,0.1,2.3,0,3.4,0.1c1.5,0.1,3.2,0.3,4.7,0.2c0.4,0,0.8,0.1,1.1,0.1
			c0.8,0.1,1.5,0.1,2.4,0.2c0.4,0,0.8,0.1,1.1,0.1c28.7,1.7,57.4,3.4,86.1,5.1c0.8,0.1,1.5-0.1,2.3,0c1.5,0.1,3.2,0.5,4.7,0.6
			c0.2,2.5,0.3,5,0.7,7.5l-0.2,0.2l0.2,0c1.7,2.4,3.7,3.5,6.6,2.7c3.5,3.3,3.9,8.1,5.2,12.4C415.7,188.9,412.3,190.5,409.7,192.4z"
			/>
	</defs>
	<clipPath id="SVGID_3-a">
		<use xlink:href="#SVGID_2-a_"  style="overflow:visible;"/>
	</clipPath>
	<g style="clip-path:url(#SVGID_3-a);enable-background:new    ;">
		
			<image style="overflow:visible;enable-background:new    ;" width="970" height="250" xlink:href="images/car-wrap.jpg"  transform="matrix(1.04 0 0 1.04 -14.4 0)">
		</image>
	</g>
</g>
</svg>



