<?xml version="1.0" encoding="utf-8"?>
<!-- Generator: Adobe Illustrator 25.4.1, SVG Export Plug-In . SVG Version: 6.00 Build 0)  -->
<svg version="1.1" id="Layer_1" xmlns="http://www.w3.org/2000/svg" xmlns:xlink="http://www.w3.org/1999/xlink" x="0px" y="0px"
	 viewBox="0 0 310 260" style="enable-background:new 0 0 310 260;" xml:space="preserve">
<g>
	<defs>
		<path id="SVGID_1_" d="M224.1,18.3l2.2-0.8c0,0,13.8-4.1,37.7-7.3c1,0,7.9-0.3,7.7,6.4c0.6,23.5,0.6,23.5,0.6,23.5s-1.4,5-6,6.4
			c-10.9,2.7-30.6,8-75.6,14.6c-1,0.4-4.7-0.6-5.7-4c-0.3-6.1-0.3-6.1-0.3-6.1l-0.8-14.8c0,0-0.5-5,12.6-8.7
			c2.7-1,16.2-6.1,19.5-6.9c0.4-2.3,0.4-2.3,0.4-2.3s-0.5-2.6-1.4-7.1c-0.8-1-1.7-10.1-2-14.2s-20-6.5-20-6.5l-8,8.8
			c0,0-183.1,41.2-208.7,54.1c0-69.1,9.2-70.5,9.2-70.5h185.9l84.1-14l-14.3,12.6l-15.7,7.5l-6.8,6.1l3.7,2.7L224.1,18.3z"/>
	</defs>
	<clipPath id="SVGID_00000135649117968174418640000003167223962228961162_">
		<use xlink:href="#SVGID_1_"  style="overflow:visible;"/>
	</clipPath>
	<g style="clip-path:url(#SVGID_00000135649117968174418640000003167223962228961162_);enable-background:new    ;">
		
			<image style="overflow:visible;" width="600" height="500" xlink:href="images/car-wrap.jpg"  transform="matrix(0.5167 0 0 0.52 0 0)">
		</image>
	</g>
</g>
</svg>
