<?xml version="1.0" encoding="utf-8"?>
<!-- Generator: Adobe Illustrator 25.4.1, SVG Export Plug-In . SVG Version: 6.00 Build 0)  -->
<svg version="1.1" id="Layer_moun" xmlns="http://www.w3.org/2000/svg" xmlns:xlink="http://www.w3.org/1999/xlink" x="0px" y="0px"
	 viewBox="0 0 970 250" style="enable-background:new 0 0 970 250;" xml:space="preserve">
<g>
	<defs>
		<path id="SVGID_4_" d="M550.3,147.8l11.9,8.9l8.5,9.2c0,0,3.7,1.7,5.1,8.5c2.7,6.8,32.7,30,32.7,30s3.4,1,2.7,9.5
			c6.8,5.1,6.8,5.1,6.8,5.1l1.4,5.8l1.7,3.7v8.5c0,0,12.3,4.4,13.6,13.3c1.4,8.9-21.8,18-21.8,18l-281.9-11.6l-2.7-4.1l22.5-22.5
			c0,0,3.4-7.1,6.1-9.2c6.1-5.4,12.3-12.9,12.3-12.9s7.5-5.1,9.2-8.9c3.7-3.7,5.4-7.5,5.4-7.5s3.1-2.4,4.4-7.5
			c1.4-5.1,10.2-17.7,13.3-17.7c2.7-5.4,2.7-5.4,2.7-5.4l1.7-1.4c0,0,2.7-14,6.5-10.2c2-1.7,7.5-12.3,11.2-9.9
			c2.7-1.4,6.5-6.1,7.5-4.8c1,1.4,3.1-7.8,7.5-8.5c3.7-2,7.1-9.5,8.9-5.4c5.4-4.4,6.1-9.5,10.2-5.4c2.7-1.7,12.6-6.5,12.6-6.5
			s0.3-4.8,5.4-1.4c3.4,0.3,10.6-4.4,10.9,6.8c3.7,0.3,6.5,2.4,6.5,2.4l7.1,3.4h13.3l9.5,9.5l1.7,4.1l1.7-4.1l6.8,2.4
			c0,0,5.8,6.1,9.2,7.5c2,4.8,4.8,3.7,4.8,3.7"/>
	</defs>
	<clipPath id="SVGID_5">
		<use xlink:href="#SVGID_4_"  style="overflow:visible;"/>
	</clipPath>
	
		<image style="overflow:visible;clip-path:url(#SVGID_5);enable-background:new    ;" width="970" height="250" xlink:href="images/mountain-fr2.jpg" >
	</image>
</g>
</svg>



