<?xml version="1.0" encoding="utf-8"?>
<!-- Generator: Adobe Illustrator 25.4.1, SVG Export Plug-In . SVG Version: 6.00 Build 0)  -->
<svg version="1.1" id="Layer_2" xmlns="http://www.w3.org/2000/svg" xmlns:xlink="http://www.w3.org/1999/xlink" x="0px" y="0px"
	 viewBox="0 0 310 258.3" style="enable-background:new 0 0 310 258.3;" xml:space="preserve">
<g>
	<defs>
		<path id="SVGID_2-a_" d="M351,243l-19.9-45.7l-86.9-3.7c-0.4-0.1-0.8-0.2-1.3-0.2c0.3-2.6-1.3-3.6-3.5-4.1c-4.2-1-5-1.9-4.7-6.2
			c0.1-0.7,0.4-1.4,0.3-2.1c-0.6-3.5,2.4-3.8,4.2-3.9c1.8-0.1,2.9-0.7,4.1-1.6c0.3-0.5,0.6-0.9,1-1.4l2.1-0.4c0,0,0,0,45.6,0.5
			c1.6,0.1,1.7-0.8,1.7-0.8s0,0,0-1.7c-0.3-2-1.1-1.6-1.1-1.6c0,0-0.3,0-6.9-0.2c-8.7-3.8-21.7-3.6-23.6-3.5
			c0.2-1.7-6.1-1.5-6.1-1.5l-8.4-1.1c-3.8,0.2-7.5,0-11.2-0.4c-0.2-0.7-0.4-1.7-0.8-1.9c-3.3-1.7-1.9-3.3-0.2-5.1
			c0.9-0.9,2.2-1.8,1.7-3.3c-0.9-2.5,0.2-4.5,1.3-6.6c0.5-1.1,1.1-2.3,1-3.5c-0.1-1.4-0.7-2.6-2.2-1.1c-1.3,1.3-1.6,1-2.4-0.4
			c-1.7-2.6-5.5-3.2-7.3-0.7c-1.4,2.1-2.9,2.2-4.8,2.4c-2.1,0.2-2.5,1.4-1.5,3.2c0.5,0.8,0.8,1.7,1.4,2.3c2.2,2.1,4.5,4.1,3.6,7.8
			c-0.2,0.8,0.8,1.8,1.1,2.7c0.4,1.1,0.8,2.2-0.6,2.9c-1.4,0-2.9,0.1-4.2,0.1c-3.5-0.1-8.9-1.6-9.8-1.3c-1.7-2.7-5.7-1.3-8.2-0.8
			c-2.7,0.6-4.6,0.8-7.8,2c-4.7,1.8-9.6,2.3-14.9,4.3c-3.4,1.3-7.5,1.4-11.3,1.8c-3.8,0.5-7.3,1.6-10.8,3.1
			c-0.7,0.3-1.9,0.7-2.7,1.3c-5.5,3.2-15.8,9.1-20.5,11.7c-8.1,2.3-4.1,4.7-5.5,4.7c-4.4-0.2-7-0.4-11.3-0.5
			c-13.4-0.2-26.9-0.4-40.3-0.7c-0.3,0-0.4,0.1-0.2,0.3l-23.7-0.2c0,0-12.8-2-32.9-0.8c-20.2,1.3-36.3,16.6-36.3,16.6l1,55.7
			L60,305.8h27.4v-0.1c10.9,0,21.8,0,32.8,0c2.4,0,5,0,7.4,0c1,0,2,0,3.1,0c0.2,0,0.4,0,0.6,0c9.7,0,19.3,0,28.9,0
			c1.8,0,3.7,0,5.5,0c6.6,0,13.1,0,19.7,0c2.7,0,5.3,0,8,0c17.2,0,34.5-0.1,51.7,0.1c2.1,0,2.5-0.4,2.5-2.5c0-5.5,0-11.1,0-16.6
			c25.2-1.2,95.9-6.5,95.9-6.5L351,243z M158.6,190c-2.8-0.1-5.6,0.1-8.4,0h-0.7c-2.3-0.1-4.6-0.2-6.9-0.8
			c4.7-3.6,17.7-10.2,22.5-14.1c0.6-0.2,1.2-0.2,1.8-0.1c0.6,0,1.2-0.1,1.8-0.1c0.8,0,1.7,0,2.5-0.1c0.2,0,0.4,0,0.6,0
			c0.4,0,0.8,0,1.3,0c0.2,0,0.4,0,0.6,0c15.2-0.4,30.4-0.8,45.6-1.2c0.4,0,0.8-0.1,1.2-0.1c0.8,0,1.7,0.1,2.5,0.1
			c0.2,1.3,0.4,2.6,0.7,3.9l-0.1,0.1h0.1c1,1.2,2.1,1.7,3.6,1.1c2,1.6,2.4,4.1,3.3,6.3c0.4,2-1.3,3-2.6,4.1c-0.4,0-0.8,0.1-1.2,0.1
			c-0.3-0.2-0.5-0.1-0.7,0.2c-0.2,0.1-0.4,0.2-0.5,0.4c-0.4-0.1-0.7,0.1-0.7,0.5c-0.9,0.4-1.8,0.7-1.8,1.9c-1,0.5-2,0.2-3,0.2
			C199.5,191.7,179,190.4,158.6,190z"/>
	</defs>
	<clipPath id="SVGID_3-a">
		<use xlink:href="#SVGID_2-a_"  style="overflow:visible;"/>
	</clipPath>
	<g style="clip-path:url(#SVGID_3-a);enable-background:new    ;">
		
			<image style="overflow:visible;" width="600" height="500" xlink:href="images/car-wrap.jpg"  transform="matrix(0.5167 0 0 0.5167 0 0)">
		</image>
	</g>
</g>
</svg>



 