<?xml version="1.0" encoding="utf-8"?>
<!-- Generator: Adobe Illustrator 25.4.1, SVG Export Plug-In . SVG Version: 6.00 Build 0)  -->
<svg version="1.1" id="Layer_moun" xmlns="http://www.w3.org/2000/svg" xmlns:xlink="http://www.w3.org/1999/xlink" x="0px" y="0px"
	 viewBox="0 0 300 250" style="enable-background:new 0 0 300 250;" xml:space="preserve">
<g>
	<defs>
		<path id="SVGID_4_" d="M31.5,318.9c0-21,0-41.9,0-62.8l-7.3,6.7c0,0-12.1-6.1-10.2-9.3c1.9-3.2,2.2-3.9,11.1-10.3
			c2.6-1.3,4.7-1.9,6.4-2.1c0-0.2,0-0.3,0-0.5c5.9,0.5,11.9,0.5,17.2,3.8c0.4,0.2,0.9,0.4,1.3,0.6c0,0.2,0.1,0.5,0.2,0.8
			c-0.1-0.3-0.1-0.5-0.2-0.8c3.4-0.5,6.5-1.3,9.3-3.5c2.1-1.8,4.8-2.4,7.8-2.5c3.9-0.2,6.1-3.8,8.9-6.2c0.6-0.5,1-1.1,1.6-1.6
			c0.2-2,0-4.2,2.7-4.7l0.2-0.1c5.9-3.5,11.7-7.1,17.6-10.4c1.4-0.8,3-1.6,4.8-1.2c0.4-0.7,1-0.6,1.6-0.5c0.5-0.2,0.9-0.3,1.3-0.5
			c0.5-1.3,1.6-2.2,2.8-2.6c5.3-1.7,8.2-6,10.7-10.3c5.5-9.9,12.5-18.6,19.8-27c1.7-2,2.5-4.4,3.9-6.5c1.3-1.8,1.7-4.1,3.8-5.2
			c0-1.3,0.1-2.4,0.1-3.7c0.5-2.8,2-5,3.7-7.1c3.8-4.6,7.8-8.9,9-15.2c0.3-1.9,3.4-3.1,5.3-4.7c-0.1-0.2-0.1-0.3,0.1-0.5
			c0.1-0.6-0.1-1.6,0.2-1.8c4.1-2.3,7-5.7,9.6-9.5c0.1-0.5,0.5-0.6,0.9-0.6c0.2-0.1,0.5-0.2,0.7-0.4c3.2-3.1,6.3-6.3,9.6-9.2
			c1.8-1.5,4.8-0.9,6.7-2.8c0.3-0.3,1.2-0.2,1.4-0.6c3.2-4.4,7.4-1.6,11.2-1.5c3,0.2,1.7,3.3,2.3,5.1c2.4,0.2,4.6,0.9,6.4,2.7
			c0.9,0.9,2,1.7,3.4,1.5c2.4-0.2,4.7-0.8,6.9,0.4c1.4,1.7,2.8,3.4,4.2,5.2c0.5,0.7,1.1,1.8,2.1,1.3c2.7-1.5,4.5,0.7,5.3,2
			c3.4,5.2,7.8,9.1,12.2,13.2c1.3,0.6,2.3,1.6,2.8,3c4.8,1.8,5.9,6.8,8.8,10.3c3,3.4,3.6,8.5,7.1,11.6l14.6,15.4
			c0,0,5.5,0.3,3.3,5.5c0.1,2.1,0.1,2.1,0.1,2.1s7.3,2.7,5.5,15.9c1.5,0.9,7.9,5.6,13.7,19.8c5.8,14.1,2.8,32.1,2.8,32.7
			c0,0.6-18.6,9.8-18.6,9.8l-21.4,5.5L31.5,318.9z"/>
	</defs>
	<clipPath id="SVGID_5">
		<use xlink:href="#SVGID_4_"  style="overflow:visible;"/>
	</clipPath>
	
		<image style="overflow:visible;clip-path:url(#SVGID_5);enable-background:new    ;" width="300" height="250" xlink:href="images/mountain-fr2.jpg" >
	</image>
</g>
</svg>


