<?xml version="1.0" encoding="utf-8"?>
<!-- Generator: Adobe Illustrator 25.4.1, SVG Export Plug-In . SVG Version: 6.00 Build 0)  -->
<svg version="1.1" id="Layer_200" xmlns="http://www.w3.org/2000/svg" xmlns:xlink="http://www.w3.org/1999/xlink" x="0px" y="0px"
	 viewBox="0 0 300 600" style="enable-background:new 0 0 300 600;" xml:space="preserve">
<style type="text/css">
	.st0{clip-path:url(#SVGID_00000030458925878777493090000000627221348758892468_);}
</style>
<g>
	<defs>
		<path id="SVGID_1_" d="M196.7,267.9c9.2-7.7,14.1-17.6,16.4-29.1c0.3-1.4,1.8-3.3,0.2-4.3c-1.8-1.2-3,1-4.2,2.1
			c-14.9,14.3-29.9,28.5-44.7,42.9c-6.6,6.5-11.1,14.4-11.4,23.8c-0.5,16.8-0.2,33.6-0.3,50.4c0,0.6,0,1.3,0.2,1.8h-4.9
			c0.7-0.8,0.1-2.2,0.2-3.2c0.1-15.2,0-30.4,0.1-45.6c0.1-9.3-3.1-17.2-8.9-24.2c-1.1-1.4-2.1-3.9-4.2-3.3c-2.4,0.7-1.1,3.3-1.1,5
			c-0.1,13.4-0.1,26.8-0.1,41.6c-6.9-7.2-11.1-14.4-13.4-22.7c-2.9-10.8-6.3-21.6-8.5-32.6c-2.8-14.1-9.5-25.3-20.5-34.2
			c-1-0.8-1.8-2.6-3.3-1.6c-1.3,0.9-0.6,2.5-0.3,3.8c0.2,1,0.5,2,0.7,3c6.2,22.4,12.2,44.8,18.5,67.2c2,7,5.2,13.6,10,19.1
			c8.3,9.5,17.8,17.7,26.8,26.4c0.7,0.6,1.3,1.7,2.1,2v0.1h7.3c0.1,0.1,0.2,0.1,0.4,0.1c0.5,0.1,0.9,0,1.2-0.1h0v0
			c0.7-0.4,1.2-1.1,1.7-1.6c8.1-7.8,16.1-15.5,24.1-23.4c5.5-5.4,9.6-11.9,11.8-19.2c3.6-11.7,6.7-23.6,9.9-35.4
			c0.3-1.1,1.2-2.6,0.1-3.4c-1.5-1.1-2.4,0.5-3.4,1.5c-7.6,7.3-15.2,14.5-22.7,21.9c-1.8,1.8-5.8,3.1-4.7,6c0.9,2.4,4.7,0.6,7.1,1.1
			c0.3,0.1,0.6,0.3,1,0.6c-2.3,7.6-6.1,14.3-12.8,21c0-6.4,0.1-11.2,0-16c-0.1-9.1,3.6-16.4,9.9-22.6
			C183.6,280.2,189.8,273.7,196.7,267.9z"/>
	</defs>
	<clipPath id="SVGID_00000016777626496104217420000011474457321926149560_">
		<use xlink:href="#SVGID_1_"  style="overflow:visible;"/>
	</clipPath>
	<g style="clip-path:url(#SVGID_00000016777626496104217420000011474457321926149560_);">
		
			<image style="overflow:visible;enable-background:new    ;" width="600" height="500" id="animShine" xlink:href="images/shine_v2.png"  transform="matrix(1 0 0 1 14.542 225.0824)">
		</image>
	</g>
</g>
</svg>
