<?xml version="1.0" encoding="utf-8"?>
<!-- Generator: Adobe Illustrator 25.4.1, SVG Export Plug-In . SVG Version: 6.00 Build 0)  -->
<svg version="1.1" id="Layer_1" xmlns="http://www.w3.org/2000/svg" xmlns:xlink="http://www.w3.org/1999/xlink" x="0px" y="0px"
	 viewBox="0 0 699 600" style="enable-background:new 0 0 699 600;" xml:space="preserve">
<style type="text/css">
	.st0{clip-path:url(#SVGID_00000060711362425939934230000017215702153041042083_);}
</style>
<g>
	<defs>
		<path id="SVGID_1_" d="M780.5-79.6H282.2L251-16.8L6.8,717l1528.2,2.6l201.9-798.9L780.5-79.6z M116.3,629.6L324.4-35.2h15
			L131.2,629.6H116.3z M161.1,629.6L369.2-35.2h17.6L178.7,629.6H161.1z M190.4,629.6L398.5-35.2h138.1L328.6,629.6H190.4z
			 M344.2,629.6L552.3-35.2h17.6L361.8,629.6H344.2z M406.9,629.6L615-35.2h17.6L424.5,629.6H406.9z M444.8,629.6L652.9-35.2h17.6
			L462.4,629.6H444.8z M546.4,629.6h-61.6L692.8-35.2h61.6L546.4,629.6z"/>
	</defs>
	<clipPath id="SVGID_00000054225597510696231770000009849203792522670476_">
		<use xlink:href="#SVGID_1_"  style="overflow:visible;"/>
	</clipPath>
	<g style="clip-path:url(#SVGID_00000054225597510696231770000009849203792522670476_);">
		
			<image style="overflow:visible;enable-background:new    ;" width="699" height="600" id="img-screen" xlink:href="images/ft-5.jpg" >
		</image>
	</g>
</g>
</svg>
