<?xml version="1.0" encoding="utf-8"?>
<!-- Generator: Adobe Illustrator 25.4.1, SVG Export Plug-In . SVG Version: 6.00 Build 0)  -->
<svg version="1.1" id="Layer_200" xmlns="http://www.w3.org/2000/svg" xmlns:xlink="http://www.w3.org/1999/xlink" x="0px" y="0px"
	 viewBox="0 0 970 250" style="enable-background:new 0 0 970 250;" xml:space="preserve">
<style type="text/css">
	.st0{clip-path:url(#SVGID_00000138545474851987273140000012935117938130434978_);}
</style>
<g>
	<g>
		<defs>
			<path id="SVGID_1_" d="M520.89,85.46c6.62-5.48,10.1-12.53,11.77-20.68c0.21-1,1.27-2.34,0.16-3.04
				c-1.31-0.82-2.14,0.68-2.99,1.5c-10.7,10.15-21.44,20.26-32.07,30.48c-4.77,4.58-7.96,10.24-8.16,16.87
				c-0.36,11.91-0.15,23.85-0.18,35.77c0,0.43,0.01,0.9,0.17,1.25h-3.52c0.47-0.6,0.1-1.56,0.11-2.3c0.04-10.8-0.03-21.6,0.05-32.4
				c0.05-6.58-2.26-12.23-6.4-17.2c-0.82-0.98-1.52-2.74-3-2.31c-1.7,0.5-0.81,2.33-0.82,3.54c-0.07,9.53-0.04,19.06-0.04,29.54
				c-4.98-5.12-8-10.22-9.59-16.14c-2.08-7.7-4.52-15.33-6.07-23.13c-1.99-10-6.83-17.99-14.68-24.31
				c-0.72-0.58-1.29-1.87-2.39-1.17c-0.95,0.61-0.42,1.77-0.23,2.7c0.14,0.72,0.33,1.43,0.53,2.13
				c4.42,15.91,8.79,31.83,13.29,47.71c1.42,5,3.76,9.63,7.21,13.54c5.94,6.72,12.77,12.54,19.21,18.75
				c0.47,0.45,0.9,1.22,1.52,1.45v0.07h5.22c0.08,0.04,0.16,0.08,0.27,0.1c0.34,0.09,0.63,0.03,0.88-0.1h0.01v-0.01
				c0.47-0.25,0.83-0.76,1.22-1.13c5.78-5.51,11.59-11.01,17.3-16.6c3.93-3.84,6.86-8.44,8.47-13.66
				c2.56-8.33,4.78-16.77,7.12-25.17c0.22-0.79,0.84-1.85,0.04-2.42c-1.08-0.77-1.72,0.39-2.41,1.05
				c-5.44,5.17-10.93,10.28-16.28,15.53c-1.31,1.28-4.13,2.22-3.34,4.24c0.67,1.72,3.35,0.46,5.11,0.76
				c0.21,0.04,0.4,0.22,0.74,0.42c-1.66,5.4-4.38,10.16-9.22,14.94c0-4.51,0.04-7.94-0.01-11.36c-0.1-6.44,2.58-11.66,7.07-16.05
				C511.53,94.17,515.98,89.53,520.89,85.46z"/>
		</defs>
		<clipPath id="SVGID_00000060030629655511780630000008760155340196500611_">
			<use xlink:href="#SVGID_1_"  style="overflow:visible;"/>
		</clipPath>
		<g style="clip-path:url(#SVGID_00000060030629655511780630000008760155340196500611_);">
			
				<image style="overflow:visible;enable-background:new    ;" width="600" height="500" id="animShine" xlink:href="images/shine_v2.png"  transform="matrix(1 0 0 1 343.2016 -64.0027)">
			</image>
		</g>
	</g>
</g>
</svg>
