<?xml version="1.0" encoding="utf-8"?>
<!-- Generator: Adobe Illustrator 25.4.1, SVG Export Plug-In . SVG Version: 6.00 Build 0)  -->
<svg version="1.1" id="Layer_2_00000064350783438535490760000017476145723806820251_"
	 xmlns="http://www.w3.org/2000/svg" xmlns:xlink="http://www.w3.org/1999/xlink" x="0px" y="0px" viewBox="0 0 350 350"
	 style="enable-background:new 0 0 350 350;" xml:space="preserve">
<style type="text/css">
	.st0{clip-path:url(#SVGID_00000163035701684313518000000013003854446429521541_);enable-background:new    ;}
</style>
<g>
	<defs>
		<path id="SVGID_2-a_" d="M416.1,284.8l-24.4-56.1l-106.7-4.5c-0.5-0.1-1-0.2-1.6-0.2c0.4-3.2-1.6-4.4-4.3-5
			c-5.2-1.2-6.1-2.3-5.8-7.6c0.1-0.9,0.5-1.7,0.4-2.6c-0.7-4.3,2.9-4.7,5.2-4.8c2.2-0.1,3.6-0.9,5-2c0.4-0.6,0.7-1.1,1.2-1.7
			l2.6-0.5c0,0,0,0,56,0.6c2,0.1,2.1-1,2.1-1s0,0,0-2.1c-0.4-2.5-1.4-2-1.4-2s-0.4,0-8.5-0.2c-10.7-4.7-26.7-4.4-29-4.3
			c0.2-2.1-7.5-1.8-7.5-1.8l-10.3-1.4c-4.7,0.2-9.2,0-13.8-0.5c-0.2-0.9-0.5-2.1-1-2.3c-4.1-2.1-2.3-4.1-0.2-6.3
			c1.1-1.1,2.7-2.2,2.1-4.1c-1.1-3.1,0.2-5.5,1.6-8.1c0.6-1.4,1.4-2.8,1.2-4.3c-0.1-1.7-0.9-3.2-2.7-1.4c-1.6,1.6-2,1.2-2.9-0.5
			c-2.1-3.2-6.8-3.9-9-0.9c-1.7,2.6-3.6,2.7-5.9,2.9c-2.6,0.2-3.1,1.7-1.8,3.9c0.6,1,1,2.1,1.7,2.8c2.7,2.6,5.5,5,4.4,9.6
			c-0.2,1,1,2.2,1.4,3.3c0.5,1.4,1,2.7-0.7,3.6c-1.7,0-3.6,0.1-5.2,0.1c-4.3-0.1-10.9-2-12-1.6c-2.1-3.3-7-1.6-10.1-1
			c-3.3,0.7-5.7,1-9.6,2.5c-5.8,2.2-11.8,2.8-18.3,5.3c-4.2,1.6-9.2,1.7-13.9,2.2c-4.7,0.6-9,2-13.3,3.8c-0.9,0.4-2.3,0.9-3.3,1.6
			c-6.8,3.9-19.4,11.2-25.2,14.4c-9.9,2.8-5,5.8-6.8,5.8c-5.4-0.2-8.6-0.5-13.9-0.6c-16.5-0.2-33-0.5-49.5-0.9
			c-0.4,0-0.5,0.1-0.2,0.4l-29.1-0.2c0,0-15.7-2.5-40.4-1c-24.8,1.6-44.6,20.4-44.6,20.4l-24.3,122.3l114.8,3.1h33.7v-0.1
			c13.4,0,26.8,0,40.3,0c2.9,0,6.1,0,9.1,0c1.2,0,2.5,0,3.8,0c0.2,0,0.5,0,0.7,0c11.9,0,23.7,0,35.5,0c2.2,0,4.5,0,6.8,0
			c8.1,0,16.1,0,24.2,0c3.3,0,6.5,0,9.8,0c21.1,0,42.4-0.1,63.5,0.1c2.6,0,3.1-0.5,3.1-3.1c0-6.8,55.6,10.3,55.6,3.6
			c31-1.5,62.2-31.9,62.2-31.9L416.1,284.8z M179.8,219.7c-3.4-0.1-6.9,0.1-10.3,0h-0.9c-2.8-0.1-5.7-0.2-8.5-1
			c5.8-4.4,21.7-12.5,27.6-17.3c0.7-0.2,1.5-0.2,2.2-0.1c0.7,0,1.5-0.1,2.2-0.1c1,0,2.1,0,3.1-0.1c0.2,0,0.5,0,0.7,0
			c0.5,0,1,0,1.6,0c0.2,0,0.5,0,0.7,0c18.7-0.5,37.3-1,56-1.5c0.5,0,1-0.1,1.5-0.1c1,0,2.1,0.1,3.1,0.1c0.2,1.6,0.5,3.2,0.9,4.8
			l-0.1,0.1h0.1c1.2,1.5,2.6,2.1,4.4,1.4c2.5,2,2.9,5,4.1,7.7c0.5,2.5-1.6,3.7-3.2,5c-0.5,0-1,0.1-1.5,0.1c-0.4-0.2-0.6-0.1-0.9,0.2
			c-0.2,0.1-0.5,0.2-0.6,0.5c-0.5-0.1-0.9,0.1-0.9,0.6c-1.1,0.5-2.2,0.9-2.2,2.3c-1.2,0.6-2.5,0.2-3.7,0.2
			C230,221.8,204.8,220.2,179.8,219.7z"/>
	</defs>
	<clipPath id="SVGID_3-a">
		<use xlink:href="#SVGID_2-a_"  style="overflow:visible;"/>
	</clipPath>
	<g style="clip-path:url(#SVGID_3-a);enable-background:new    ;">
		
			<image style="overflow:visible;enable-background:new    ;" width="320" height="320" xlink:href="images/car-wrap.jpg"  transform="matrix(1.0954 0 0 1.0954 -0.2598 -0.2598)">
		</image>
	</g>
</g>
</svg>




  