<?xml version="1.0" encoding="utf-8"?>
<!-- Generator: Adobe Illustrator 25.4.1, SVG Export Plug-In . SVG Version: 6.00 Build 0)  -->
<svg version="1.1" id="Layer_endfr" xmlns="http://www.w3.org/2000/svg" xmlns:xlink="http://www.w3.org/1999/xlink" x="0px"
	 y="0px" viewBox="0 0 340.5 340" style="enable-background:new 0 0 340.5 340;" xml:space="preserve">
<style type="text/css">
	.st0{fill:#F26641;}
	.st1{fill:#97CB59;}
	.st2{fill:#FDB913;}
	.st3{fill:#00A5D1;}
	.st4{clip-path:url(#SVGID_00000156578771790580278010000008692605101213952665_);}
	.st5{fill:#FFFFFF;}
</style>
<polygon id="line-1" class="st0" points="-384.4,200 -48.9,823.6 680,430.5 331.8,-186.2 "/>
<polygon id="line-2" class="st1" points="-368.7,229.3 -71.4,779.1 649.1,385.8 348.2,-157.2 "/>
<polygon id="line-3" class="st2" points="-364.4,237.4 -62.6,798.7 663.9,406.9 352.7,-149.3 "/>
<polygon id="line-4" class="st3" points="-343.9,272.2 -30.1,859.6 701.9,464.9 372.4,-114 "/>
<g id="anim">
	<g>
		<g>
			<g>
				<defs>
					<polygon id="SVGID_1_" points="-343.9,272.2 -30.1,859.8 701.9,464.9 372.4,-114.2 					"/>
				</defs>
				<clipPath id="SVGID_00000150090703786886075970000018364753367314938801_">
					<use xlink:href="#SVGID_1_"  style="overflow:visible;"/>
				</clipPath>
				<g style="clip-path:url(#SVGID_00000150090703786886075970000018364753367314938801_);">
					<rect x="2.8" y="2.9" class="st3" width="335" height="334.8"/>
					<path class="st5" d="M335.3,5.4v329.9H5.3V5.4H335.3 M340.3,0.4H0.3v339.8h340V0.4L340.3,0.4z"/>
				</g>
			</g>
		</g>
	</g>
</g>
</svg>
