<?xml version="1.0" encoding="utf-8"?>
<!-- Generator: Adobe Illustrator 25.4.1, SVG Export Plug-In . SVG Version: 6.00 Build 0)  -->
<svg version="1.1" id="Layer_1" xmlns="http://www.w3.org/2000/svg" xmlns:xlink="http://www.w3.org/1999/xlink" x="0px" y="0px"
	 viewBox="0 0 350 350" style="enable-background:new 0 0 350 350;" xml:space="preserve">
<style type="text/css">
	.st0{clip-path:url(#SVGID_00000176007516643966986570000017598064343418748297_);enable-background:new    ;}
</style>
<g>
	<defs>
		<path id="SVGID_1_" d="M259.3,19.9l2.5-0.9c0,0,15.8-4.7,43.2-8.4c1.1,0,9.1-0.3,8.8,7.3c0.7,26.9,0.7,26.9,0.7,26.9
			s-1.6,5.7-6.9,7.3c-12.5,3.1-35.1,9.2-86.6,16.7c-1.1,0.5-5.4-0.7-6.5-4.6c-0.3-7-0.3-7-0.3-7l-0.9-17c0,0-0.6-5.7,14.4-10
			c3.1-1.1,18.6-7,22.3-7.9c0.5-2.6,0.5-2.6,0.5-2.6s-0.6-3-1.6-8.1c-0.9-1.1-1.9-11.6-2.3-16.3s-22.9-7.4-22.9-7.4l-9.2,10.1
			c0,0-209.8,47.2-239.2,62c0-79.2,10.5-80.8,10.5-80.8h213l96.4-16l-16.4,14.4l-18,8.6l-7.8,7l4.2,3.1L259.3,19.9z"/>
	</defs>
	<clipPath id="SVGID_00000164476127388222249850000004754243518246209463_">
		<use xlink:href="#SVGID_1_"  style="overflow:visible;"/>
	</clipPath>
	<g style="clip-path:url(#SVGID_00000164476127388222249850000004754243518246209463_);enable-background:new    ;">
		
			<image style="overflow:visible;enable-background:new    ;" width="320" height="320" xlink:href="images/car-wrap.jpg"  transform="matrix(1.0938 0 0 1.1007 0 -1.1177)">
		</image>
	</g>
</g>
</svg>



