<?xml version="1.0" encoding="utf-8"?>
<!-- Generator: Adobe Illustrator 25.4.1, SVG Export Plug-In . SVG Version: 6.00 Build 0)  -->
<svg version="1.1" id="Layer_moun" xmlns="http://www.w3.org/2000/svg" xmlns:xlink="http://www.w3.org/1999/xlink" x="0px" y="0px"
	 viewBox="0 0 340 340" style="enable-background:new 0 0 340 340;" xml:space="preserve">
<style type="text/css">
	.st0{clip-path:url(#SVGID_00000119109548153886077840000002017568477050032793_);enable-background:new    ;}
</style>
<g>
	<g>
		<defs>
			<path id="SVGID_4_" d="M336.5,245.6c-0.8-1.2-3.4-1.8-2.2-4c4-7.7,0.2-12.8-5.7-17.2c-1.6-1.2-2.3-2.6-2.1-4.5
				c0.3-2.2-0.7-4.1-1-6.1c-0.5-4-4.8-6.5-4.9-9.4c-0.2-6-4.8-8-7.7-11.5c-5.2-6.1-12.4-10.5-16-18.1c-1-2-0.7-4.5-2.5-6.2
				c-4.5-4.1-7.7-9.5-12.1-13.9c-4.4-4.5-9-9.1-13.3-13.7c-3.7-3.9-10.2-4.8-13.7-9.7c-0.5-0.7-2.3-0.5-3.6-0.5
				c-6.3,0-10.7-3-14.3-8.1c-1.4-2-4.5-3.6-7.1-0.7c-5-3.6-6.9,2.1-10.2,3.5c-0.6,0.3-0.5,2.1-2,1.7c-5.4-1.2-7.2,2.9-9.4,6.4
				c-0.3,0.1-0.5,0.2-0.8,0.3c-1,0.7-2,1.4-3.1,2.1c-1.7,2.4-3.1,5-5.6,6.6c-1.4,1-2.8,2.1-4.3,3.1c-3.8,2.6-6.7,6.2-8.5,10.1
				c-2.7,5.7-5,11.6-9.4,16.1c-2.1,2.1-3.2,4.5-3.8,7.2c-0.5,1.5-1,3.1-1.6,4.6c-3.5,5.6-5.8,12.1-10.8,16.5
				c-7.9,7-11.5,17-18.5,24.6c-2.3,2.5-4.9,5.5-5,9.5c-4,1.3-7.8,3-11.4,5.2c-2.8,0.7-6.1,0.2-8.4,2.2c-4.6,4.1-10.5,6-15.3,9.7
				c-3.5,1.3-2.5,4.4-2.8,7c-1.1,0.5-2.8,0.7-3.3,1.5c-2.6,4.2-6.4,5.4-11,5.1c-1.7-0.1-3.2,0.6-4.3,1.7c-3.6,3.6-8.2,4.4-12.9,4.9
				c-2.6-1.7-5.7-1.7-8.5-2.6c-4.3-2.8-9-3.8-13.5-1c-6,3.7-13.1,6.2-16.1,13.6c-0.7,1.6-2.5,1.7-4,2.2c-2.6,0.9-5.3,1.6-7.9,2.5
				c-4.8-0.1-11,0.2-16.5-0.9c4.5-5.5,5-9,4.1-15.2c-0.9-6-3.5-11.4,0.1-17.2c1.2-1.9,1.9-2.1,1.5-3.3c-3.8-3.8-4.1-6.3-4.6-10
				c0-0.2-0.3-1.1-0.5-0.8c-2.1,2.7-0.7,5.9-1,8.8c0,0.2,0,0.3,0.1,0.5c0,26.9,0,53.8,0,80.6c-0.3,1-0.2,1.9,0.9,2.3
				c-1.9,2.1-0.6,4.7-1.1,7.1c-0.7,3.6,0.9,4.5,4.2,4.4c8.3-0.2,16.6-0.2,24.9-0.2c103.5,0,207.1,0.1,310.6,0.2
				c0-30.1,0-60.1,0-90.2C337.7,251.2,338,247.9,336.5,245.6z M224.7,130.3c0,0.2-0.1,0.5-0.3,0.8l0,0
				C224.6,130.7,224.7,130.5,224.7,130.3c-0.6-0.9-1.1-1.9-2.1-2.3C223.5,128.4,224.1,129.4,224.7,130.3z M207.8,139.3
				c0.9-0.2,1.9-0.5,2.8-0.7l0,0C209.6,138.8,208.7,139,207.8,139.3L207.8,139.3z M206.7,142.4L206.7,142.4c-0.5,0-1,0-1.4,0
				C205.7,142.4,206.2,142.4,206.7,142.4z"/>
		</defs>
		<clipPath id="SVGID_5">
			<use xlink:href="#SVGID_4_"  style="overflow:visible;"/>
		</clipPath>
		
			<g transform="matrix(1 0 0 1 0 -5.960464e-08)" style="clip-path:url(#SVGID_5);enable-background:new    ;">
			
				<image style="overflow:visible;enable-background:new    ;" width="320" height="320" xlink:href="images/mountain-fr2.jpg"  transform="matrix(1.0657 0 0 1.0657 -0.9849 0.7622)">
			</image>
		</g>
	</g>
</g>
</svg>


