<?xml version="1.0" encoding="utf-8"?>
<!-- Generator: Adobe Illustrator 25.4.1, SVG Export Plug-In . SVG Version: 6.00 Build 0)  -->
<svg version="1.1" id="Layer_200" xmlns="http://www.w3.org/2000/svg" xmlns:xlink="http://www.w3.org/1999/xlink" x="0px" y="0px"
	 viewBox="0 0 728 90" style="enable-background:new 0 0 728 90;" xml:space="preserve">
<style type="text/css">
	.st0{clip-path:url(#SVGID_00000174569061102911356980000011538860715659474830_);}
</style>
<g>
	<defs>
		<path id="SVGID_1_" d="M381.1,35.8c3.7-3,5.6-6.9,6.5-11.4c0.1-0.5,0.7-1.3,0.1-1.7c-0.7-0.5-1.2,0.4-1.7,0.8
			c-6,5.6-11.9,11.2-17.9,16.8c-2.6,2.5-4.4,5.6-4.6,9.3c-0.2,6.6-0.1,13.2-0.1,19.8c0,0.2,0,0.5,0.1,0.7h-2c0.3-0.3,0-0.9,0.1-1.3
			c0-6,0-11.9,0-17.9c0-3.6-1.2-6.7-3.6-9.5c-0.4-0.5-0.8-1.5-1.7-1.3c-1,0.3-0.4,1.3-0.4,2c0,5.3,0,10.5,0,16.3
			c-2.8-2.8-4.4-5.6-5.4-8.9c-1.2-4.2-2.5-8.5-3.4-12.8c-1.1-5.5-3.8-9.9-8.2-13.4c-0.4-0.3-0.7-1-1.3-0.6c-0.5,0.4-0.2,1-0.1,1.5
			c0.1,0.4,0.2,0.8,0.3,1.2c2.5,8.8,4.9,17.6,7.4,26.3c0.8,2.7,2.1,5.3,4,7.5c3.3,3.7,7.1,6.9,10.7,10.4c0.3,0.2,0.5,0.7,0.8,0.8v0
			h2.9c0,0,0.1,0,0.2,0c0.2,0,0.4,0,0.5,0l0,0l0,0c0.3-0.2,0.5-0.4,0.7-0.6c3.2-3.1,6.4-6.1,9.6-9.2c2.2-2.1,3.8-4.7,4.7-7.5
			c1.4-4.6,2.7-9.3,4-13.9c0.1-0.4,0.5-1,0-1.3c-0.6-0.4-1,0.2-1.4,0.6c-3,2.9-6.1,5.7-9.1,8.6c-0.7,0.7-2.3,1.2-1.9,2.4
			c0.4,0.9,1.9,0.2,2.8,0.4c0.1,0,0.2,0.1,0.4,0.2c-0.9,3-2.4,5.6-5.1,8.2c0-2.5,0-4.4,0-6.3c0-3.6,1.4-6.4,4-8.9
			C375.9,40.6,378.4,38,381.1,35.8z"/>
	</defs>
	<clipPath id="SVGID_00000072239329846791460430000002164142008110235548_">
		<use xlink:href="#SVGID_1_"  style="overflow:visible;"/>
	</clipPath>
	<g style="clip-path:url(#SVGID_00000072239329846791460430000002164142008110235548_);">
		
			<image style="overflow:visible;enable-background:new    ;" width="600" height="500" id="animShine" xlink:href="images/shine_v2.png"  transform="matrix(1 0 0 1 175.2229 -108.7687)">
		</image>
	</g>
</g>
</svg>
