<?xml version="1.0" encoding="utf-8"?>
<!-- Generator: Adobe Illustrator 25.4.1, SVG Export Plug-In . SVG Version: 6.00 Build 0)  -->
<svg version="1.1" id="Layer_1" xmlns="http://www.w3.org/2000/svg" xmlns:xlink="http://www.w3.org/1999/xlink" x="0px" y="0px"
	 viewBox="0 0 728 175" style="enable-background:new 0 0 728 175;" xml:space="preserve">
<style type="text/css">
	.st0{clip-path:url(#SVGID_00000094616523339327180800000008139678113040858038_);}
</style>
<g>
	<defs>
		<path id="SVGID_1_" d="M795-292.1H296.7l-31.2,62.8L21.3,504.5l1528.2,2.6l201.9-798.9L795-292.1z M130.8,417.1l208.1-664.8h15
			L145.7,417.1H130.8z M175.6,417.1l208.1-664.8h17.6L193.2,417.1H175.6z M204.9,417.1L413-247.7h138.1l-208,664.8H204.9z
			 M358.7,417.1l208.1-664.8h17.6L376.3,417.1H358.7z M421.4,417.1l208.1-664.8h17.6L439,417.1H421.4z M459.3,417.1l208.1-664.8H685
			L476.9,417.1H459.3z M560.9,417.1h-61.6l208-664.8h61.6L560.9,417.1z"/>
	</defs>
	<clipPath id="SVGID_00000018235903839192153000000015815745015575643546_">
		<use xlink:href="#SVGID_1_"  style="overflow:visible;"/>
	</clipPath>
	<g style="clip-path:url(#SVGID_00000018235903839192153000000015815745015575643546_);">
		
			<image style="overflow:visible;enable-background:new    ;" width="1456" height="350" id="img-screen" xlink:href="images/ft-5.jpg"  transform="matrix(0.5 0 0 0.5 0 0)">
		</image>
	</g>
</g>
</svg>
