<?xml version="1.0" encoding="utf-8"?>
<!-- Generator: Adobe Illustrator 25.4.1, SVG Export Plug-In . SVG Version: 6.00 Build 0)  -->
<svg version="1.1" id="Layer_endfr" xmlns="http://www.w3.org/2000/svg" xmlns:xlink="http://www.w3.org/1999/xlink" x="0px"
	 y="0px" viewBox="0 0 300 50" style="enable-background:new 0 0 300 50;" xml:space="preserve">
<style type="text/css">
	.st0{fill:#F26641;}
	.st1{fill:#97CB59;}
	.st2{fill:#FDB913;}
	.st3{fill:#00A5D1;}
	.st4{clip-path:url(#SVGID_00000051352945346620986180000000239331766048813474_);}
	.st5{fill:#FFFFFF;}
</style>
<polygon id="line-1" class="st0" points="-114,54.2 58.1,374.2 559.4,104.1 380.7,-212.3 "/>
<polygon id="line-2" class="st1" points="-106,69.2 46.6,351.3 543.5,81.2 389.1,-197.4 "/>
<polygon id="line-3" class="st2" points="-103.7,73.4 51.1,361.4 551.1,92 391.4,-193.4 "/>
<polygon id="line-4" class="st3" points="-93.2,91.2 67.8,392.7 570.6,121.8 401.5,-175.3 "/>
<g id="anim">
	<g>
		<g>
			<g>
				<g>
					<defs>
						<polygon id="mask" points="-121.8,106.3 201.2,734.2 1181.1,206.3 842.4,-413.1 						"/>
					</defs>
					<clipPath id="mask_bg">
						<use xlink:href="#mask"  style="overflow:visible;"/>
					</clipPath>
					<g style="clip-path:url(#mask_bg);">
						<rect x="0.8" y="2.8" class="st3" width="298.4" height="44.4"/>
						<path class="st5" d="M298.4,3.2v44.7H2L1.6,2.7l296.9-0.6 M300,0H0v50h300V0L300,0z"/>
					</g>
				</g>
			</g>
		</g>
	</g>
</g>
</svg>
