<?xml version="1.0" encoding="utf-8"?>
<!-- Generator: Adobe Illustrator 25.4.1, SVG Export Plug-In . SVG Version: 6.00 Build 0)  -->
<svg version="1.1" id="Layer_endfr" xmlns="http://www.w3.org/2000/svg" xmlns:xlink="http://www.w3.org/1999/xlink" x="0px"
	 y="0px" viewBox="0 0 728 90" style="enable-background:new 0 0 728 90;" xml:space="preserve">
<style type="text/css">
	.st0{fill:#F26641;}
	.st1{fill:#97CB59;}
	.st2{fill:#FDB913;}
	.st3{fill:#00A5D1;}
	.st4{clip-path:url(#SVGID_00000099630616828185505050000004210704961581751952_);}
	.st5{fill:#FFFFFF;}
</style>
<polygon id="line-1" class="st0" points="-153.1,74.6 182.4,698.2 1159.2,171.9 811,-444.8 "/>
<polygon id="line-2" class="st1" points="-137.4,103.9 159.9,653.7 1128.3,127.2 827.4,-415.8 "/>
<polygon id="line-3" class="st2" points="-133.1,112 168.7,673.3 1143.1,148.3 831.9,-407.9 "/>
<polygon id="line-4" class="st3" points="-112.6,146.8 201.2,734.2 1181.1,206.3 851.6,-372.6 "/>
<g id="anim">
	<g>
		<g>
			<g>
				<defs>
					<polygon id="mask" points="-112.6,146.8 201.2,734.2 1181.1,206.3 851.6,-372.6 					"/>
				</defs>
				<clipPath id="mask_bg">
					<use xlink:href="#mask"  style="overflow:visible;"/>
				</clipPath>
				<g style="clip-path:url(#mask_bg);">
					<rect x="1.9" y="5" class="st3" width="724.2" height="80"/>
					<path class="st5" d="M724.2,5.8v80.4H4.8l-1-81.4l720.5-1 M728,0H0v90h728V0L728,0z"/>
				</g>
			</g>
		</g>
	</g>
</g>
</svg>




